<svg width="512" height="512" viewBox="0 0 512 512" fill="none" xmlns="http://www.w3.org/2000/svg">
<path d="M64.5226 419.459C62.0337 395.636 69.0454 373.737 72.7165 350.425C73.175 347.514 73.4819 335.673 76.4038 333.627C78.9399 331.852 83.3238 350.673 83.3687 350.835C83.5697 351.557 88.2033 372.679 88.4899 360.258C88.9641 339.709 89.8599 320.875 93.816 300.442C102.065 257.835 111.804 215.382 121.266 173.026C122.781 166.245 125.576 154.27 127.821 147.01C128.57 144.588 128.996 139.201 131.303 140.25C139.184 143.832 143.594 184.177 144.619 189.004C153.528 230.972 161.649 273.038 173.297 314.371C179.632 336.85 186.096 361.218 196.855 382.177C201.868 391.943 212.306 400.542 224.1 395.287C246.552 385.282 258.245 349.203 266.709 328.916C277.624 302.752 286.203 275.619 295.387 248.82C298.995 238.294 298.221 237.945 302.557 246.771C306.136 254.057 308.759 261.559 311.98 268.895C313.404 272.137 320.53 250.895 321.198 247.181C322.858 237.962 331.441 225.694 335.948 217.683C348.522 195.329 376.015 184.932 387.57 161.144C389.68 156.798 400.734 164.194 404.982 162.373C421.669 155.222 424.429 131.645 425.467 116.078C425.942 108.942 422.571 95.2481 432.227 93.5442C437.344 92.6411 442.814 93.1345 448 93.1345" stroke="black"/>
</svg>
