<svg width="512" height="512" viewBox="0 0 512 512" fill="none" xmlns="http://www.w3.org/2000/svg">
<path d="M64 145.794C67.9284 128.925 80.6126 109.283 98.3737 104.69C117.843 99.6545 131.108 123.355 137.555 137.862C141.675 147.133 146.664 151.755 156.545 153.967C168.134 156.561 172.343 162.938 175.775 174.038C179.456 185.942 185.167 188.578 195.726 195.131C215.135 207.178 231.412 220.866 239.354 242.786C242.498 251.463 241.628 258.445 252.094 255.946C259.269 254.233 269.675 249.267 277.273 251.619C287.09 254.658 299.001 263.047 306.779 269.467C314.966 276.225 326.635 286.642 325.108 298.553C324.853 300.541 324.155 302.421 322.644 299.514C318.428 291.405 316.64 281.421 315.433 272.472C314.079 262.435 313.786 244.526 329.074 249.336C348.869 255.563 363.645 274.685 375.407 290.62C385.775 304.668 395.039 319.115 404.011 334.068C412.161 347.65 421.941 360.225 430.212 373.79C436.987 384.9 445.639 395.661 448 408.645" stroke="black"/>
</svg>
