<svg width="512" height="512" viewBox="0 0 512 512" fill="none" xmlns="http://www.w3.org/2000/svg">
<path d="M437.863 402.257C428.344 404.028 418.58 404.397 408.974 405.562C395.02 407.253 376.981 411.032 363.743 404.46C350.879 398.074 347.978 385.098 342.137 373.245C335.983 360.757 332.696 353.772 320.96 345.458C306.867 335.474 306.664 339.998 292.684 333.707C291.354 333.108 288.896 332.034 289.501 330.708C290.539 328.431 293.592 327.772 295.866 326.729C299.986 324.841 304.333 323.491 308.597 321.955C320.777 317.568 337.368 315.284 346.116 304.757C359.708 288.4 369.315 265.59 376.657 246.061C380.211 236.608 383.496 227.009 385.777 217.172C387.551 209.517 391.029 201.319 388.776 193.791C387.588 189.824 381.234 187.572 377.331 188.956C366.424 192.823 357.206 200.629 348.38 208.113C319.259 232.808 269.99 285.974 245.8 312.285C216.74 343.893 189.128 376.823 159.746 408.132C159.25 408.66 137.359 433.444 128.286 434.818C119.568 436.138 120.947 407.962 120.941 407.153C120.833 392.095 121.884 381.674 120.513 366.451C119.75 357.982 118.793 342.532 110.904 335.726C100.891 327.089 89.5142 340.586 82.9941 346.193C79.8653 348.883 77.6749 352.531 77.2408 346.07C76.5979 336.501 77.7988 326.894 77.7305 317.304C77.706 313.869 79.6727 286.041 74.915 282.417C73.6543 281.456 73.6607 298.665 73.8133 299.432C74.1685 301.217 77.1299 309.249 79.383 303.165C81.9689 296.183 80.064 288.104 82.4433 280.886C89.2559 260.222 114.212 270.782 129.877 272.501C174.726 277.424 222.236 272.554 249.044 231.433C253.697 224.295 259.579 213.11 256.205 204.074C252.557 194.303 239.094 188.906 230.927 184.733C201.129 169.505 171.525 157.163 158.766 124.14C154.702 113.62 155.106 104.945 154.604 93.9042C154.307 87.3611 153.879 81.9172 149.218 77.2563" stroke="black" stroke-linecap="round"/>
</svg>
