<svg width="512" height="512" viewBox="0 0 512 512" fill="none" xmlns="http://www.w3.org/2000/svg">
<path d="M70.4409 326.747C65.0095 291.3 62.9922 254.059 64.4688 218.228C64.5378 216.552 66.1077 184.779 71.3149 186.036C76.3982 187.263 83.3446 194.693 86.7552 197.617C95.9921 205.534 104.877 213.888 114.431 221.432C130.673 234.258 149.144 247.266 161.043 222.962C163.866 217.197 165.573 210.939 166.87 204.681C167.274 202.732 167.126 199.071 169.273 197.908C177.071 193.684 193.111 199.026 200.664 201.04C209.591 203.42 217.489 208.979 226.228 211.163C233.147 212.893 240.444 211.435 247.567 213.567C260.588 217.464 270.261 230.695 283.692 223.909C285.989 222.748 294.951 220.378 295.928 217.937C296.677 216.063 336.867 232.872 339.991 233.814C364.058 241.072 389.382 242.106 414.352 242.772C418.116 242.873 422.619 243.672 425.859 241.316C429.299 238.814 432.386 235.912 435.546 233.086C438.982 230.011 443.671 231.046 448 231.046" stroke="black"/>
</svg>
