<svg width="512" height="512" viewBox="0 0 512 512" fill="none" xmlns="http://www.w3.org/2000/svg">
<path d="M448 70.0326C414.492 70.0326 365.106 72.5299 364 116.033C363.984 116.651 364.733 134.221 366 131.144C368.689 124.613 318.629 123.743 313.556 124.588C297.197 127.315 301.972 159.479 303.222 170.588C304.424 181.27 308.821 188.821 318.222 194.477C340.564 207.919 370.62 206.358 395.556 211.588C402.92 213.133 411.882 214.303 418.667 217.922C424.607 221.09 412.402 228.568 410.778 229.922C383.27 252.845 354.801 276.356 324.667 295.699C306.564 307.319 280.957 321.272 258.556 314.81C243.62 310.502 246.282 314.203 245.889 329.922C245.711 337.049 246.433 344.599 239.556 348.922C227.998 356.186 213.444 359.377 201.333 365.81C166.165 384.494 140.608 413.631 110.444 438.699C95.5742 451.058 103.309 425.304 101.667 417.366C99.6324 407.534 81.2963 408.473 73.8889 408.144C64.0205 407.705 64.8784 411.249 64 420.033" stroke="black"/>
</svg>
