<svg width="512" height="512" viewBox="0 0 512 512" fill="none" xmlns="http://www.w3.org/2000/svg">
<path d="M433.468 432.033C438.787 438.641 457.218 454.159 442.279 437.581C415.146 407.469 368.973 399.088 333.609 382.756C310.944 372.289 282.413 362.774 300.322 336.09C309.197 322.866 325.743 296.04 343.073 291.708C350.396 289.877 348.49 303.618 340.136 304.435C325.426 305.874 311.166 296.267 299.18 289.587C271.207 273.995 244.047 260.648 213.19 251.242C177.578 240.386 140.472 232.729 103.377 229.377C98.2141 228.911 71.7216 225.148 64.7064 231.662C61.0221 235.083 72.711 238.307 77.5968 239.494C100.319 245.012 125.947 244.244 147.107 233.457C174.267 219.61 185.093 190.88 190.836 162.804C192.15 156.382 191.934 143.78 200.137 141.592C213.89 137.925 220.816 168.057 223.307 176.184C228.277 192.402 234.032 210.475 253.167 213.876C302.327 222.616 265.9 97.6177 272.584 73.3877C276.583 58.8885 335.827 77.9574 345.52 80.5672C361.951 84.9908 362.299 87.3045 374.727 76.6511" stroke="black" stroke-linecap="round"/>
</svg>
