<svg width="512" height="512" viewBox="0 0 512 512" fill="none" xmlns="http://www.w3.org/2000/svg">
<path d="M66.2929 428.095C64.7255 411.442 63.0984 394.022 64.5879 377.265C66.1337 359.874 73.4901 358.918 85.9004 369.06C98.3517 379.235 113.739 382.432 129.378 384.618C151.894 387.765 180.727 391.584 203.013 384.831C235.235 375.067 239.154 340.601 233.596 312.582C229.696 292.919 243.585 289.308 261.089 282.744C274.437 277.739 289.443 283.687 301.37 273.793C309.204 267.294 312.435 257.032 315.649 247.792C321.784 230.155 327.364 212.759 336.003 196.109C341.486 185.541 372.932 142.622 352.307 133.557C342.155 129.094 330.717 127.182 320.338 123.113C304.767 117.009 290.617 109.669 273.664 108.195C262.655 107.237 251.455 107.768 240.416 107.768C237.245 107.768 220.581 107.656 229.76 115.441C241.093 125.053 261.492 126.285 275.369 127.589C298.86 129.796 327.224 132.039 349.643 123.113C371.698 114.332 384.009 91.9044 405.801 84.3246C419.371 79.6046 433.646 127.787 437.983 136.114C442.537 144.858 439.42 155.635 443.205 164.886C444.907 169.047 446.887 172.369 448 176.821" stroke="black"/>
</svg>
