<svg width="512" height="512" viewBox="0 0 512 512" fill="none" xmlns="http://www.w3.org/2000/svg">
<path d="M64 205.834C76.3946 183.533 88.9087 162.296 105.966 143.89C132.54 115.215 163.501 92.5142 198.374 78.3393C215.268 71.4725 291.945 43.6798 286.441 91.106C284.319 109.388 272.462 126.456 264.734 142.173C256.973 157.957 248.532 174.738 245.87 192.724C244.672 200.82 245.29 205.773 253.674 205.09C274.044 203.431 294.646 194.637 312.902 184.995C317.045 182.807 325.832 177.636 330.267 175.148C332.661 173.806 334.924 171.574 337.606 171.484C340.355 171.392 333.301 198.563 332.955 200.052C329.836 213.46 328.538 225.475 333.781 238.581C341.74 258.473 358.425 266.672 376.161 272.816C393.053 278.668 410.974 281.606 427.43 288.961C439.245 294.241 448.089 302.568 447.999 317.528C447.902 333.827 441.923 349.993 435.751 364.473C423.41 393.421 408.01 420.505 393.319 448" stroke="black"/>
</svg>
