<svg width="512" height="512" viewBox="0 0 512 512" fill="none" xmlns="http://www.w3.org/2000/svg">
<path d="M89.8835 73.0793C97.7344 73.0793 105.608 72.9009 113.458 73.0793C113.578 73.082 119.027 73.6231 117.682 74.5782C110.117 79.9537 93.3825 79.3679 84.8415 80.7104C82.8469 81.0239 52.5281 82.6205 68.7617 87.7964C93.8915 95.8088 119.723 103.863 145.618 108.918C178.263 115.292 209.313 113.449 241.552 105.648C286.915 94.6708 247.074 102.605 288.565 92.157C296.69 90.1109 312.458 84.5915 317.999 94.9506C322.466 103.303 320.383 116.473 319.702 125.475C318.872 136.457 318.01 147.997 314.796 158.588C310.273 173.499 298.095 188.924 291.154 202.331C267.749 247.534 244.233 294.244 228.061 342.621C209.303 398.731 259.754 339.057 257.972 335.671C256.876 333.589 253.106 336.024 251.09 337.238C243.159 342.014 238.977 346.8 232.898 354.408C212.276 380.217 197.562 410.131 177.777 436.51C170.974 445.581 191.036 418.073 198.49 409.529C210.029 396.303 224.288 386.672 238.69 376.824C261.364 361.32 284.179 346.226 304.508 327.631C312.087 320.699 316.341 314.951 320.588 305.964C321.009 305.072 329.75 288.57 332.035 295.062C336.028 306.412 326.766 321.983 325.63 333.218C324.131 348.051 337.679 348.566 348.659 344.392C370.858 335.954 386.516 312.795 404.871 298.605C415.228 290.598 411.851 297.207 408.55 302.557C405.045 308.238 409.942 308.071 414.75 309.507C429.864 314.021 433.441 321.421 435.054 335.943C436.046 344.866 436.944 343.703 443.707 346.709C447.804 348.529 447.654 352.579 448 356.384" stroke="black" stroke-linecap="round"/>
</svg>
