<svg width="512" height="512" viewBox="0 0 512 512" fill="none" xmlns="http://www.w3.org/2000/svg">
<path d="M64 448C74.3057 405.372 111.543 376.534 148.241 358.197C205.831 329.421 271.662 327.33 332.8 344.477C350.703 349.497 367.818 356.744 384.52 364.977C391.258 368.297 398.609 373.291 406.01 375.146C416.422 377.756 414.004 346.482 414.075 342.862C414.889 301.514 418.136 258.321 397.164 221.314C382.857 196.068 363.388 173.888 342.79 154.002C312.179 124.448 277.159 96.8337 237.997 80.6101C216.885 71.8642 194.422 67.4587 171.863 65.5443C157.665 64.3394 139.454 62.1677 125.554 66.997C106.696 73.5495 119.574 99.2309 128.624 108.482C136.784 116.822 146.68 123.429 156.15 130.004C173.048 141.737 189.276 153.704 204.644 167.561C231.569 191.84 256.456 218.125 282.224 243.643C285.218 246.608 286.66 249.021 289.457 245.204C298.921 232.285 306.224 217.492 314.953 204.042C336.459 170.905 360.585 139.063 388.059 110.957C393.271 105.625 398.673 104.626 405.125 109.074C410.847 113.018 408.594 123.211 408.663 129.251C408.955 154.55 417.707 178.462 425.314 202.212C431.823 222.536 437.201 242.93 448 261.077" stroke="black" stroke-linecap="round"/>
</svg>
