<svg width="512" height="512" viewBox="0 0 512 512" fill="none" xmlns="http://www.w3.org/2000/svg">
<path d="M93.0338 362.929C81.9827 314.235 68.7648 264.413 64.6848 214.364C63.0286 194.047 62.2779 166.902 88.4301 170.917C103.757 173.271 117.738 182.084 131.317 189.4C146.437 197.545 161.584 204.658 178.02 209.358C193.951 213.913 208.321 215.168 224.542 212.053C233.646 210.305 243.208 206.686 252.588 207.497C270.936 209.084 285.321 222.686 299.836 233.167C312.543 242.342 325.688 242.752 335.09 227.776C344.85 212.231 349.438 191.919 353.747 174.126C358.679 153.764 361.906 132.959 360.29 111.876C358.652 90.5119 349.991 65.1745 326.004 64.0017C323.884 63.898 326.159 68.6997 327.276 70.6117C335.414 84.5392 345.878 97.0239 355.807 109.502C392.371 155.451 432.971 204.644 445.821 264.933C449.223 280.897 448.115 296.871 446.063 312.936C443.9 329.879 441.292 347.328 435.705 363.442C421.822 403.48 393.207 433.418 354.171 445.073C328.422 452.761 299.528 444.876 279.119 426.462C256.396 405.959 274.356 376.565 291.719 359.977C314.145 338.551 348.053 325.762 378.22 326.221C384.713 326.319 391.134 327.273 397.24 329.429" stroke="black"/>
</svg>
