<svg width="512" height="512" viewBox="0 0 512 512" fill="none" xmlns="http://www.w3.org/2000/svg">
<path d="M64 438.347C102.278 420.189 130.531 401.739 152.082 364.687C153.905 361.551 159.444 345.643 162.451 355.867C165.495 366.217 167.419 376.036 180.568 375.652C195.667 375.212 230.332 351.883 204.049 339.538C195.06 335.316 184.044 335.591 174.37 335.366C171.256 335.294 162.42 336.045 165.073 334.413C173.62 329.153 183.14 325.565 191.772 320.348C222.047 302.052 248.224 278.497 273.06 253.482C289.019 237.409 298.977 215.806 323.12 215.222C326.534 215.14 348.267 218.64 343.978 209.144C339.085 198.31 325.805 190.782 317.637 182.803C299.962 165.533 285.68 145.131 271.51 124.995C267.032 118.631 256.013 111.699 259.711 104.852C265.929 93.3359 312.608 92.51 321.69 91.2643C363.588 85.5172 405.351 79.0062 447.197 73.0282C450.479 72.5594 442.813 78.0659 440.165 80.0604C420.839 94.6173 402.452 110.122 386.291 128.213C350.607 168.16 328.031 216.896 299.639 261.826C296.446 266.879 274.069 310.607 259.711 302.231C255.766 299.93 251.808 293.859 248.626 290.908C238.427 281.451 227.218 273.633 218.352 262.779C200.677 241.144 188.508 212.213 165.312 195.913C157.27 190.263 151.226 183.041 141.235 183.041" stroke="black"/>
</svg>
