<?xml version="1.0" standalone="no"?>
<!DOCTYPE svg PUBLIC "-//W3C//DTD SVG 20010904//EN"
 "http://www.w3.org/TR/2001/REC-SVG-20010904/DTD/svg10.dtd">
<svg version="1.0" xmlns="http://www.w3.org/2000/svg"
 width="1280.000000pt" height="694.000000pt" viewBox="0 0 1280.000000 694.000000"
 preserveAspectRatio="xMidYMid meet">
<metadata>
Created by potrace 1.15, written by Peter Selinger 2001-2017
</metadata>
<g transform="translate(0.000000,694.000000) scale(0.100000,-0.100000)"
fill="#000000" stroke="none">
<path d="M10317 6888 c-119 -118 -122 -248 -3 -138 36 33 116 160 116 184 0 3
-13 6 -30 6 -22 0 -42 -13 -83 -52z"/>
<path d="M12766 6881 c-4 -7 -5 -15 -2 -18 9 -9 19 4 14 18 -4 11 -6 11 -12 0z"/>
<path d="M10166 6671 c-19 -20 -21 -44 -4 -39 18 6 40 45 30 52 -5 3 -17 -3
-26 -13z"/>
<path d="M5490 6628 c0 -9 5 -20 11 -23 17 -11 20 0 4 21 -13 17 -14 17 -15 2z"/>
<path d="M4596 6579 c-14 -17 -26 -34 -26 -39 0 -5 -41 -55 -91 -112 -51 -57
-108 -127 -127 -155 -19 -29 -41 -53 -48 -53 -7 0 -19 -3 -28 -6 -11 -4 -16
-1 -16 10 0 24 -13 20 -45 -14 -16 -16 -38 -30 -50 -30 -11 0 -28 -9 -38 -20
-21 -25 -2 -27 31 -4 13 9 29 13 36 11 8 -3 22 0 32 7 13 9 27 11 42 5 19 -7
21 -12 12 -28 -17 -33 -12 -61 11 -61 45 0 180 163 273 330 20 36 50 81 66
100 16 19 32 47 35 63 6 24 4 27 -18 27 -16 0 -35 -11 -51 -31z"/>
<path d="M7705 6360 c-21 -23 -12 -39 13 -24 19 12 29 44 14 44 -5 0 -17 -9
-27 -20z"/>
<path d="M7635 6258 c-64 -22 -108 -90 -69 -105 37 -14 138 76 119 107 -7 12
-11 12 -50 -2z"/>
<path d="M9832 6228 c-14 -14 -16 -38 -3 -38 5 0 14 7 21 15 17 20 0 41 -18
23z"/>
<path d="M4051 6134 c-30 -38 -27 -69 5 -57 15 6 44 54 44 73 0 19 -29 10 -49
-16z"/>
<path d="M7585 6120 c-3 -5 -1 -10 4 -10 6 0 11 5 11 10 0 6 -2 10 -4 10 -3 0
-8 -4 -11 -10z"/>
<path d="M9424 6055 c-19 -14 -19 -14 2 -15 12 0 27 7 34 15 17 20 -9 21 -36
0z"/>
<path d="M3980 6050 c0 -5 5 -10 10 -10 6 0 10 5 10 10 0 6 -4 10 -10 10 -5 0
-10 -4 -10 -10z"/>
<path d="M12464 6035 c-4 -9 -2 -21 4 -27 15 -15 44 -1 40 19 -4 23 -36 29
-44 8z"/>
<path d="M3912 6008 c-14 -14 -16 -38 -4 -38 12 0 32 23 32 37 0 16 -12 17
-28 1z"/>
<path d="M9647 5942 c-22 -24 -21 -32 2 -32 10 0 22 7 25 16 14 37 0 46 -27
16z"/>
<path d="M7306 5904 c-13 -12 -14 -20 -6 -28 13 -13 45 4 45 24 0 21 -21 23
-39 4z"/>
<path d="M6911 5856 c-8 -9 -11 -19 -7 -23 9 -9 29 13 24 27 -2 8 -8 7 -17 -4z"/>
<path d="M8062 5810 c-45 -20 -63 -47 -42 -60 26 -16 110 35 110 67 0 18 -17
16 -68 -7z"/>
<path d="M8160 5682 c-25 -21 -20 -45 8 -35 22 8 52 34 52 45 0 15 -37 9 -60
-10z"/>
<path d="M9463 5685 c-3 -9 -3 -18 0 -21 9 -9 27 6 27 22 0 19 -19 18 -27 -1z"/>
<path d="M9836 5684 c-25 -24 -19 -36 9 -18 25 16 33 34 16 34 -5 0 -17 -7
-25 -16z"/>
<path d="M12040 5640 c-8 -6 -40 -17 -70 -26 -151 -45 -383 -202 -482 -327
-21 -27 -38 -59 -38 -71 0 -24 -106 -109 -243 -195 -37 -24 -66 -45 -64 -48 6
-5 171 100 257 163 61 45 68 48 130 49 52 1 77 7 127 33 79 41 179 111 250
175 81 74 195 214 191 235 -4 20 -36 27 -58 12z"/>
<path d="M7872 5618 c-17 -17 -15 -28 6 -28 19 0 42 18 42 32 0 12 -35 9 -48
-4z"/>
<path d="M8205 5620 c-3 -5 -1 -10 4 -10 6 0 11 5 11 10 0 6 -2 10 -4 10 -3 0
-8 -4 -11 -10z"/>
<path d="M9415 5581 c-120 -56 -193 -137 -269 -295 -24 -51 -68 -121 -97 -156
-30 -34 -69 -82 -87 -106 -18 -24 -39 -44 -47 -44 -16 0 -47 -42 -43 -58 6
-19 -42 -71 -87 -93 -54 -27 -69 -43 -61 -64 5 -14 13 -11 51 15 25 17 45 35
45 40 0 15 61 80 75 80 7 0 15 -7 19 -15 13 -36 75 -9 219 94 212 151 300 241
359 367 50 107 51 265 1 263 -10 0 -45 -13 -78 -28z"/>
<path d="M5885 5430 c-11 -4 -31 -20 -44 -34 -29 -31 -17 -52 22 -42 32 8 87
53 87 72 0 15 -33 18 -65 4z"/>
<path d="M5715 5408 c-72 -36 -179 -101 -210 -126 -16 -14 -62 -40 -101 -57
-45 -21 -102 -61 -160 -111 -50 -44 -124 -107 -165 -140 -169 -140 -319 -307
-319 -356 0 -78 130 21 445 341 292 296 379 368 493 405 54 18 81 41 66 56 -5
5 -26 0 -49 -12z"/>
<path d="M8164 5395 c-74 -16 -139 -48 -219 -108 -89 -66 -127 -105 -123 -125
5 -28 40 -25 103 9 32 17 94 41 136 54 97 28 167 68 175 99 3 13 16 34 30 47
43 41 10 49 -102 24z"/>
<path d="M7549 5365 c-85 -31 -147 -91 -121 -117 25 -25 196 91 178 121 -9 13
-11 13 -57 -4z"/>
<path d="M6805 5292 c-51 -12 -68 -35 -109 -153 -23 -65 -100 -121 -331 -243
-49 -26 -106 -60 -125 -74 -72 -54 -266 -252 -380 -387 -157 -187 -162 -191
-235 -199 -77 -9 -175 -56 -209 -101 -14 -18 -29 -53 -32 -77 -3 -24 -11 -51
-18 -60 -22 -30 -411 -308 -432 -308 -61 0 -215 -77 -276 -138 -26 -25 -56
-64 -67 -87 -22 -46 -55 -79 -157 -151 -42 -30 -69 -44 -72 -36 -2 7 -14 12
-27 12 -31 0 -105 -27 -126 -46 -9 -8 -43 -22 -74 -30 -32 -9 -95 -35 -140
-60 -45 -24 -89 -44 -98 -44 -9 0 -17 -4 -17 -9 0 -16 -152 -60 -395 -112 -55
-12 -122 -27 -150 -34 -55 -14 -72 -7 -56 23 18 33 337 330 470 436 124 100
229 194 201 180 -41 -21 -289 -217 -430 -340 -318 -278 -330 -288 -352 -266
-7 7 -25 12 -40 12 -15 0 -28 5 -28 11 0 19 41 71 135 170 112 121 162 162
350 288 165 110 527 367 594 420 23 18 40 35 38 38 -3 2 -67 -40 -143 -95 -77
-54 -159 -113 -184 -131 -73 -52 -361 -241 -366 -241 -13 0 270 255 371 335
110 87 262 235 337 328 44 54 78 100 75 103 -2 3 -69 -61 -148 -141 -79 -81
-184 -180 -234 -221 -49 -41 -128 -106 -175 -145 -152 -126 -471 -361 -645
-475 -93 -62 -208 -139 -255 -172 -47 -32 -150 -94 -230 -137 -80 -43 -170
-94 -200 -113 -30 -20 -127 -69 -215 -109 -187 -86 -222 -109 -276 -177 -28
-35 -55 -56 -87 -69 -64 -24 -184 -49 -193 -40 -4 5 -2 30 4 57 8 36 21 59 47
82 77 71 279 234 346 280 39 27 97 69 129 94 31 25 112 87 179 139 122 94 155
122 126 106 -19 -11 -340 -228 -447 -303 -45 -31 -108 -75 -140 -97 -32 -22
-100 -71 -151 -109 -101 -75 -129 -85 -249 -86 -84 0 -103 6 -103 31 0 30 253
284 334 336 38 25 96 67 128 94 33 27 78 59 101 71 23 11 71 49 107 83 36 34
106 89 155 123 77 51 206 150 369 284 29 24 51 32 85 34 54 4 90 27 114 76 55
110 -97 131 -161 22 -14 -25 -21 -49 -18 -66 5 -23 1 -29 -20 -34 -13 -3 -30
-14 -37 -24 -6 -9 -27 -25 -44 -34 -18 -9 -33 -20 -33 -24 0 -10 -167 -138
-224 -172 -24 -14 -83 -57 -132 -96 -49 -40 -110 -85 -135 -100 -25 -16 -86
-59 -135 -96 -111 -84 -182 -124 -196 -110 -10 10 381 412 1017 1047 121 121
263 265 315 321 94 99 157 144 300 213 25 12 72 39 105 61 33 21 63 39 68 39
4 1 17 -10 29 -24 41 -48 87 -22 139 79 29 56 32 67 21 90 -22 50 -78 27 -130
-53 -21 -32 -47 -56 -75 -70 -48 -24 -139 -79 -219 -132 -29 -20 -64 -41 -77
-48 -20 -11 -22 -11 -13 6 6 10 20 27 32 38 12 11 45 47 74 80 28 33 -8 2 -79
-70 -118 -118 -139 -135 -228 -179 -54 -27 -100 -53 -104 -59 -3 -5 33 11 81
35 47 25 86 42 86 38 0 -11 -905 -916 -1160 -1161 -295 -283 -363 -344 -427
-385 -107 -68 -308 -134 -409 -134 -106 0 -245 -55 -317 -125 -21 -21 -50 -61
-64 -91 -14 -29 -48 -79 -75 -111 l-51 -57 7 -65 c5 -63 5 -65 -30 -104 -35
-38 -36 -42 -32 -98 7 -98 58 -144 137 -123 29 8 42 7 60 -4 13 -9 49 -16 84
-17 43 -1 82 -11 127 -30 61 -26 75 -28 205 -29 145 -1 186 8 288 61 18 9 66
28 107 42 70 24 79 25 140 14 159 -30 145 -23 171 -91 18 -51 38 -56 122 -33
77 22 120 21 252 -4 39 -7 120 -19 181 -25 119 -13 146 -8 187 38 10 10 36 27
58 37 38 17 53 18 222 7 396 -27 1048 -61 1167 -62 l45 -1 -40 -36 -40 -35 51
35 51 36 99 -5 c54 -3 351 -9 659 -14 308 -4 567 -11 575 -15 8 -3 24 -20 35
-37 18 -27 26 -30 75 -32 31 -2 85 -10 120 -18 98 -24 181 -38 231 -38 55 -1
33 -17 -35 -26 -33 -5 -52 -2 -70 10 -31 20 -56 21 -56 2 0 -8 -9 -17 -19 -21
-27 -8 -90 -80 -107 -122 -19 -44 -11 -71 33 -109 l35 -31 -36 -22 c-19 -12
-51 -41 -70 -63 -32 -37 -42 -42 -123 -58 -202 -42 -414 -54 -473 -28 -19 9
-56 36 -82 62 -62 62 -114 63 -144 4 -19 -36 -12 -70 22 -115 19 -25 36 -34
81 -43 59 -13 91 -9 213 25 30 9 109 27 175 40 66 14 151 32 189 40 38 8 71
13 73 11 13 -12 -291 -140 -512 -216 -568 -194 -1155 -332 -1571 -370 -66 -6
-197 -26 -290 -45 -93 -19 -182 -35 -199 -35 -16 0 -37 -5 -45 -11 -11 -8 0
-9 40 -5 30 3 111 11 180 16 138 11 193 20 355 55 61 13 203 40 317 59 369 63
508 95 853 193 189 53 622 196 749 247 49 19 94 33 99 29 6 -3 16 2 23 12 9
13 34 20 87 25 91 9 166 42 234 103 69 61 290 166 325 155 9 -3 11 -30 9 -92
-3 -92 5 -116 41 -116 25 0 63 27 163 115 66 58 90 73 136 84 54 13 58 13 87
-9 30 -22 35 -23 87 -11 35 8 80 10 120 6 52 -6 74 -3 117 13 63 24 192 42
304 42 76 0 110 5 344 49 279 52 497 157 655 315 33 33 116 98 185 145 168
114 422 282 457 302 112 66 413 259 413 266 0 3 -15 -4 -32 -15 -18 -11 -78
-45 -133 -77 -55 -32 -116 -69 -136 -82 -19 -12 -38 -23 -42 -23 -3 0 -30 -14
-59 -31 -29 -18 -59 -32 -65 -32 -7 0 -13 -4 -13 -9 0 -5 -17 -16 -37 -26 -21
-9 -40 -20 -43 -23 -16 -19 -201 -109 -224 -109 -58 0 -19 34 139 119 250 135
476 279 735 470 63 46 131 96 150 109 52 38 294 224 305 236 20 20 -53 -29
-145 -99 -594 -446 -1078 -725 -1257 -725 -53 0 -42 31 36 105 94 90 163 144
348 274 87 61 183 131 213 156 30 24 83 66 117 92 34 27 60 49 58 51 -10 11
-231 -115 -344 -197 -384 -276 -363 -262 -401 -259 -67 6 -48 53 69 173 37 38
85 73 128 94 37 19 102 57 143 84 141 94 320 221 316 224 -6 6 -106 -46 -156
-81 -41 -29 -255 -158 -307 -185 -33 -17 -41 -14 -48 20 -6 26 -2 36 26 66 19
19 60 48 92 65 31 17 57 36 57 42 0 6 -16 22 -35 35 -19 13 -35 27 -35 32 0
20 186 142 350 231 64 34 100 47 145 51 83 8 160 50 203 110 62 86 54 177 -20
223 -21 13 -38 28 -38 33 0 7 64 69 350 336 91 84 282 256 393 353 37 31 117
104 179 160 101 93 113 101 116 80 5 -40 24 -78 44 -89 38 -20 139 17 248 90
25 17 54 31 64 31 11 0 46 20 77 45 32 25 75 53 96 63 21 9 65 36 98 58 33 22
92 59 130 82 39 22 79 48 90 57 25 21 -7 3 -195 -110 l-145 -86 71 73 c93 96
145 175 151 231 5 38 2 46 -21 64 -141 111 -544 -106 -672 -361 -18 -38 -34
-76 -34 -85 0 -15 -267 -262 -308 -285 -9 -5 0 11 20 35 64 78 58 122 -17 139
-56 13 -98 4 -190 -43 -97 -51 -206 -150 -237 -216 -17 -38 -43 -64 -130 -132
-60 -46 -126 -92 -146 -103 -20 -10 -64 -44 -97 -75 -34 -31 -101 -90 -150
-131 -48 -41 -125 -109 -170 -150 -188 -173 -309 -276 -343 -294 -20 -10 -81
-48 -135 -82 -54 -35 -101 -64 -104 -64 -3 0 -35 -22 -72 -48 -194 -141 -319
-212 -373 -212 -18 0 -33 8 -44 25 -14 22 -15 30 -3 58 7 17 20 43 29 57 10
14 34 50 54 81 43 65 128 151 208 211 32 24 90 69 131 101 48 37 166 105 343
196 683 351 654 334 827 488 151 133 178 191 147 305 -14 48 -40 62 -101 55
-150 -18 -357 -181 -574 -449 -75 -93 -105 -146 -105 -182 0 -31 -36 -55 -270
-181 -247 -132 -312 -178 -467 -329 -51 -49 -95 -87 -98 -85 -16 16 48 222
102 329 18 35 31 66 29 67 -3 4 -52 -77 -84 -137 -7 -14 -21 -36 -31 -49 -15
-20 -20 -22 -38 -11 -18 11 -25 9 -56 -14 -29 -22 -39 -25 -56 -17 -11 6 -27
11 -36 11 -17 0 -162 -139 -158 -151 1 -3 -18 -30 -43 -59 -26 -31 -43 -59
-40 -67 8 -19 -39 -69 -86 -94 -21 -11 -38 -16 -38 -13 0 4 36 46 80 95 44 48
80 90 80 94 0 4 10 15 23 26 12 10 17 18 11 19 -6 0 -17 -6 -23 -14 -13 -16
-130 -70 -137 -63 -3 2 57 56 133 118 76 62 154 128 173 145 97 88 112 94 81
34 -9 -18 -2 -14 25 15 21 22 52 47 68 55 24 12 32 24 37 56 7 37 30 64 236
270 220 220 206 212 -37 -21 -63 -60 -105 -99 -95 -86 15 17 20 40 21 85 1 33
7 87 13 120 7 32 9 61 6 64 -11 12 -48 -96 -49 -145 -1 -40 -5 -53 -18 -56
-19 -5 -78 -103 -78 -129 0 -10 7 -18 17 -18 14 0 14 -3 -5 -20 -12 -11 -28
-20 -37 -20 -8 0 -30 -21 -49 -47 -35 -49 -84 -95 -266 -248 -58 -49 -128
-110 -157 -137 -45 -41 -58 -48 -93 -48 -79 0 -299 -87 -390 -154 -19 -15
-141 -131 -270 -259 l-235 -232 -130 -70 c-183 -98 -233 -121 -301 -140 -64
-19 -232 -83 -304 -117 -81 -37 -115 -40 -211 -14 -21 6 -34 1 -61 -22 -64
-57 -340 -110 -687 -132 -85 -5 -177 -13 -205 -16 l-51 -7 85 80 c157 148 189
172 263 194 103 31 147 88 150 194 1 54 -19 100 -49 112 -26 10 -74 -19 -103
-61 -16 -23 -41 -77 -57 -120 -33 -94 -82 -161 -203 -279 -83 -82 -93 -88
-121 -82 -28 6 -35 0 -31 -27 2 -12 -32 -24 -69 -23 -23 0 -35 5 -35 14 0 8
-6 16 -14 19 -9 3 -11 -1 -7 -16 6 -17 1 -21 -31 -26 -95 -16 -424 -27 -957
-33 -466 -5 -580 -3 -586 7 -13 21 8 64 49 104 35 34 41 36 60 24 17 -10 25
-10 41 0 11 6 41 13 67 14 l48 1 -55 6 -55 6 50 29 c28 16 127 78 221 138 141
89 187 112 258 133 120 35 189 65 306 135 54 33 121 70 147 84 26 13 68 42 93
64 73 64 327 199 611 325 30 13 84 47 118 75 34 27 90 65 123 82 59 32 61 32
94 16 21 -9 34 -23 34 -35 0 -34 25 -44 103 -39 119 9 366 104 514 200 37 25
101 73 141 109 63 55 73 68 68 90 -5 24 2 31 72 72 131 76 195 105 280 122 18
4 55 22 83 41 46 31 105 54 138 54 7 0 28 15 46 34 24 26 57 43 126 67 159 55
225 84 275 124 71 57 74 61 23 31 -25 -14 -57 -26 -70 -26 -34 0 -264 -67
-310 -91 -21 -10 -50 -19 -64 -19 -36 0 -79 -24 -99 -55 -20 -31 -88 -64 -130
-65 -17 0 -39 -9 -50 -20 -12 -10 -39 -26 -61 -36 -34 -14 -37 -14 -26 0 16
19 6 36 -20 36 -39 0 -18 29 36 49 112 42 215 102 320 186 22 18 59 42 82 54
42 21 58 46 47 74 -9 25 -32 28 -92 13 -32 -8 -90 -18 -129 -22 -110 -10 -108
4 19 134 58 59 111 117 117 130 19 35 -2 54 -58 52 -75 -3 -74 -3 -51 30 33
46 16 53 -49 20 -52 -26 -111 -79 -111 -99 0 -5 -26 -24 -57 -44 -76 -47 -106
-79 -105 -114 4 -74 8 -97 20 -100 6 -3 12 -14 12 -26 1 -12 7 -33 15 -47 23
-41 18 -59 -36 -112 -27 -28 -53 -64 -56 -80 -4 -21 -19 -36 -62 -60 -31 -18
-96 -59 -146 -91 -49 -32 -115 -72 -145 -88 -30 -17 -68 -38 -85 -47 -16 -9
-66 -37 -110 -61 -44 -24 -92 -54 -107 -66 -18 -15 -51 -26 -104 -34 -99 -15
-116 -3 -61 41 28 23 37 37 37 60 0 17 -7 36 -16 42 -13 10 9 29 143 118 191
128 210 138 265 138 99 1 208 91 208 172 0 21 6 53 14 71 13 30 423 454 491
507 75 60 164 114 333 204 158 84 195 100 265 112 88 15 117 30 144 70 56 86
-37 201 -142 176z m3070 -981 c-60 -53 -309 -271 -415 -362 -74 -64 -188 -166
-253 -228 -65 -61 -141 -128 -170 -150 -74 -55 -198 -187 -235 -252 -38 -68
-55 -81 -317 -254 -115 -77 -254 -170 -308 -207 -75 -52 -107 -68 -133 -68
-26 0 -34 4 -34 18 0 27 37 58 215 177 272 184 321 220 303 223 -22 4 -90 -31
-165 -87 -117 -86 -288 -178 -375 -201 -48 -13 -75 3 -64 38 8 24 106 111 151
135 17 9 46 32 65 52 19 20 55 48 80 63 25 14 56 36 71 49 18 16 38 23 70 24
32 1 58 11 96 35 28 18 66 37 85 42 36 9 49 41 28 67 -16 19 -11 25 67 77 38
26 89 68 113 95 100 106 371 331 457 378 26 14 65 44 85 66 20 21 83 69 138
105 101 66 102 67 178 69 85 2 139 20 217 71 50 33 67 41 50 25z m-895 -881
c0 -5 -10 -19 -22 -30 -27 -25 -38 -8 -12 21 18 20 34 25 34 9z m-1096 -37
c-6 -38 -38 -82 -49 -71 -6 6 43 108 52 108 2 0 1 -17 -3 -37z m-4484 -10 c-1
-13 -51 -46 -58 -38 -4 3 4 15 18 25 26 21 40 25 40 13z m1300 -8 c19 -10 21
-15 10 -19 -108 -39 -310 -102 -310 -97 1 11 125 91 143 91 9 0 17 4 17 8 0
12 50 30 85 31 17 0 41 -6 55 -14z m3780 -24 c0 -12 -79 -65 -86 -58 -9 9 6
27 40 48 34 21 46 24 46 10z m-3942 -87 c-31 -16 -38 -30 -11 -19 12 4 9 -3
-9 -22 -41 -42 -181 -124 -238 -139 -27 -7 -69 -26 -92 -41 -75 -50 -188 -90
-188 -67 1 15 157 114 179 114 11 0 28 11 37 25 12 19 22 23 40 19 33 -9 92
32 102 70 7 25 15 31 57 42 28 6 61 16 75 22 14 6 36 11 50 11 l25 0 -27 -15z
m-398 -148 c0 -21 -223 -172 -320 -218 -74 -35 -203 -68 -216 -56 -9 10 225
122 288 138 53 14 81 29 125 67 95 81 123 97 123 69z m4430 -101 c0 -19 -89
-118 -154 -170 -27 -22 -79 -68 -116 -102 -72 -65 -113 -90 -198 -118 -62 -20
-82 -15 -82 20 0 20 14 34 73 72 39 26 108 70 152 99 44 28 91 57 104 64 13 7
65 43 115 81 50 38 94 69 99 69 4 0 7 -7 7 -15z m-4870 -84 c0 -10 -58 -36
-66 -29 -3 3 2 13 11 22 17 17 55 22 55 7z m-270 -41 c0 -10 -92 -40 -124 -40
-33 0 -4 20 50 35 61 17 74 18 74 5z m-222 -405 c-18 -19 -344 -215 -351 -212
-16 5 143 127 198 152 53 25 147 64 154 65 2 0 2 -2 -1 -5z m2728 -866 c4 -8
26 -10 60 -6 41 4 54 2 54 -7 0 -8 -6 -18 -12 -23 -17 -13 -264 -143 -272
-143 -11 0 -6 66 7 83 12 17 136 105 149 106 4 1 10 -4 14 -10z"/>
<path d="M4250 3100 c0 -5 5 -10 10 -10 6 0 10 5 10 10 0 6 -4 10 -10 10 -5 0
-10 -4 -10 -10z"/>
<path d="M7114 5280 c-42 -19 -88 -66 -78 -81 13 -21 55 -6 103 37 28 25 51
50 51 55 0 14 -31 10 -76 -11z"/>
<path d="M12767 5242 c-23 -25 -21 -34 6 -30 14 2 23 11 25 26 4 27 -9 28 -31
4z"/>
<path d="M12707 5169 c-17 -10 -24 -39 -9 -39 14 0 44 38 35 43 -5 3 -16 1
-26 -4z"/>
<path d="M5782 5143 c-4 -10 -29 -46 -55 -80 -39 -49 -56 -62 -85 -68 -44 -8
-96 -38 -117 -68 -8 -12 -15 -40 -15 -63 0 -37 -6 -46 -55 -93 -57 -54 -75
-58 -75 -16 0 13 -12 38 -26 55 -22 26 -25 35 -16 54 16 35 71 95 103 112 16
8 36 28 45 45 15 29 14 33 0 48 -15 14 -19 14 -44 1 -15 -9 -43 -37 -61 -62
-19 -26 -59 -62 -89 -80 -198 -121 -342 -242 -342 -287 0 -51 73 -33 193 48
81 54 114 67 152 57 54 -14 53 -72 -2 -139 -13 -16 -23 -36 -23 -45 0 -22
-147 -161 -190 -179 -19 -9 -38 -20 -42 -26 -8 -14 9 -37 28 -37 18 0 46 30
40 45 -5 13 25 43 113 115 l54 44 -7 -39 c-4 -21 -14 -48 -22 -59 -8 -11 -14
-39 -14 -63 0 -31 -7 -49 -25 -69 -16 -17 -23 -34 -20 -45 4 -10 1 -29 -5 -41
-9 -21 -9 -21 2 -4 7 11 26 32 42 47 22 21 27 31 19 41 -20 25 20 116 75 170
45 44 50 54 54 103 3 41 14 67 43 112 60 89 115 143 146 143 62 0 136 42 170
96 26 43 24 63 -11 77 l-29 13 44 56 c35 45 51 57 77 60 41 4 45 32 5 36 -19
2 -29 -2 -35 -15z"/>
<path d="M8480 5120 c0 -5 5 -10 11 -10 5 0 7 5 4 10 -3 6 -8 10 -11 10 -2 0
-4 -4 -4 -10z"/>
<path d="M12579 5066 c-39 -29 -59 -53 -59 -72 0 -2 12 -4 27 -4 18 0 38 13
65 42 65 71 45 91 -33 34z"/>
<path d="M8535 5060 c-3 -5 -2 -10 4 -10 5 0 13 5 16 10 3 6 2 10 -4 10 -5 0
-13 -4 -16 -10z"/>
<path d="M2813 4909 c-27 -10 -43 -39 -43 -76 0 -21 -13 -41 -47 -75 -27 -25
-58 -51 -70 -57 -13 -7 -23 -17 -23 -23 0 -7 -17 -30 -37 -53 l-38 -40 40 38
c23 20 45 37 49 37 5 0 35 29 68 65 56 61 62 65 104 65 38 0 50 6 79 35 19 19
35 39 35 44 0 9 -41 31 -80 44 -8 2 -25 1 -37 -4z"/>
<path d="M8475 4900 c-3 -5 -14 -10 -23 -10 -28 0 -97 -52 -187 -139 l-85 -83
11 -42 c9 -37 7 -49 -14 -98 -27 -61 -41 -72 -101 -81 -51 -8 -138 -51 -153
-76 -9 -15 -9 -23 2 -37 29 -40 164 -10 262 58 43 29 45 33 39 67 -3 20 1 56
8 81 12 41 17 46 52 53 94 19 115 29 173 84 51 47 61 62 61 89 0 27 6 36 30
49 32 16 32 35 1 35 -11 0 -24 12 -31 30 -12 30 -33 39 -45 20z"/>
<path d="M7160 4679 c0 -5 5 -7 10 -4 6 3 10 8 10 11 0 2 -4 4 -10 4 -5 0 -10
-5 -10 -11z"/>
<path d="M12208 4649 c-24 -14 -23 -39 2 -39 20 0 44 32 33 44 -8 8 -15 7 -35
-5z"/>
<path d="M7890 4589 c0 -5 5 -7 10 -4 6 3 10 8 10 11 0 2 -4 4 -10 4 -5 0 -10
-5 -10 -11z"/>
<path d="M2507 4552 c-20 -15 -51 -44 -68 -65 -17 -21 -48 -46 -69 -57 -46
-23 -56 -38 -41 -53 9 -9 23 1 59 41 26 29 59 61 73 70 23 15 97 93 88 92 -2
-1 -21 -13 -42 -28z"/>
<path d="M8441 4536 c-12 -14 -5 -26 16 -26 15 0 18 26 4 34 -5 3 -14 0 -20
-8z"/>
<path d="M8564 4468 l-19 -23 23 19 c12 11 22 21 22 23 0 8 -8 2 -26 -19z"/>
<path d="M7685 4470 c-3 -6 1 -7 9 -4 18 7 21 14 7 14 -6 0 -13 -4 -16 -10z"/>
<path d="M8520 4460 c0 -5 5 -10 10 -10 6 0 10 5 10 10 0 6 -4 10 -10 10 -5 0
-10 -4 -10 -10z"/>
<path d="M8514 4408 l-29 -33 33 29 c17 17 32 31 32 33 0 8 -8 1 -36 -29z"/>
<path d="M7625 4420 c-3 -5 1 -10 9 -10 9 0 16 5 16 10 0 6 -4 10 -9 10 -6 0
-13 -4 -16 -10z"/>
<path d="M11917 4383 c-15 -15 -6 -33 17 -33 23 0 41 22 29 34 -8 8 -38 8 -46
-1z"/>
<path d="M8435 4318 l-40 -43 43 40 c23 21 42 40 42 42 0 8 -9 0 -45 -39z"/>
<path d="M6980 4341 c-48 -15 -90 -42 -90 -58 0 -23 62 -11 112 22 53 35 41
55 -22 36z"/>
<path d="M2265 4330 c3 -5 8 -10 11 -10 2 0 4 5 4 10 0 6 -5 10 -11 10 -5 0
-7 -4 -4 -10z"/>
<path d="M2757 4314 c-14 -14 -7 -35 11 -32 9 2 17 10 17 17 0 16 -18 25 -28
15z"/>
<path d="M7823 4300 c-29 -12 -29 -26 0 -32 16 -3 28 3 40 19 17 22 17 23 0
22 -10 0 -28 -4 -40 -9z"/>
<path d="M7670 4290 c0 -5 4 -10 9 -10 6 0 13 5 16 10 3 6 -1 10 -9 10 -9 0
-16 -4 -16 -10z"/>
<path d="M8086 4267 c-22 -51 -15 -71 8 -23 9 20 15 42 13 49 -3 7 -12 -5 -21
-26z"/>
<path d="M4940 4259 c0 -5 5 -7 10 -4 6 3 10 8 10 11 0 2 -4 4 -10 4 -5 0 -10
-5 -10 -11z"/>
<path d="M4895 4230 c-3 -5 -1 -10 4 -10 6 0 11 5 11 10 0 6 -2 10 -4 10 -3 0
-8 -4 -11 -10z"/>
<path d="M4845 4201 c-6 -11 9 -23 19 -14 9 9 7 23 -3 23 -6 0 -12 -4 -16 -9z"/>
<path d="M5855 4176 c-40 -17 -62 -43 -47 -58 15 -15 55 -3 91 28 48 40 21 58
-44 30z"/>
<path d="M5143 4163 c-18 -6 -16 -33 1 -33 19 0 31 19 20 30 -5 4 -15 5 -21 3z"/>
<path d="M11700 4110 c0 -5 5 -10 10 -10 6 0 10 5 10 10 0 6 -4 10 -10 10 -5
0 -10 -4 -10 -10z"/>
<path d="M5125 4100 c-3 -5 -1 -10 4 -10 6 0 11 5 11 10 0 6 -2 10 -4 10 -3 0
-8 -4 -11 -10z"/>
<path d="M7480 4100 c-8 -5 -12 -12 -8 -15 10 -10 49 5 43 16 -8 11 -16 11
-35 -1z"/>
<path d="M7952 4049 c2 -6 8 -10 13 -10 5 0 11 4 13 10 2 6 -4 11 -13 11 -9 0
-15 -5 -13 -11z"/>
<path d="M1864 3985 c-10 -25 10 -39 36 -25 26 14 22 34 -8 38 -13 2 -25 -3
-28 -13z"/>
<path d="M1826 3983 c-11 -11 -6 -23 9 -23 8 0 15 4 15 9 0 13 -16 22 -24 14z"/>
<path d="M4514 3969 c-3 -6 1 -18 10 -27 15 -15 17 -15 32 0 19 19 11 38 -16
38 -10 0 -22 -5 -26 -11z"/>
<path d="M7247 3957 c-18 -12 -18 -14 -2 -27 15 -12 21 -12 43 0 14 8 25 20
24 25 -2 16 -45 17 -65 2z"/>
<path d="M6539 3927 c-19 -12 -35 -30 -37 -40 -6 -28 41 -21 71 11 49 51 27
70 -34 29z"/>
<path d="M3186 3908 c-9 -12 -16 -26 -16 -31 0 -13 29 12 41 35 14 26 -6 23
-25 -4z"/>
<path d="M4984 3899 c-10 -17 13 -36 27 -22 12 12 4 33 -11 33 -5 0 -12 -5
-16 -11z"/>
<path d="M1625 3883 c-21 -21 -14 -38 16 -38 17 0 25 6 27 21 4 27 -23 38 -43
17z"/>
<path d="M5450 3868 c-58 -13 -122 -56 -134 -91 -16 -43 1 -49 69 -24 109 41
163 81 152 112 -7 17 -22 17 -87 3z"/>
<path d="M6910 3820 c0 -5 5 -10 10 -10 6 0 10 5 10 10 0 6 -4 10 -10 10 -5 0
-10 -4 -10 -10z"/>
<path d="M3097 3783 c-4 -3 -7 -11 -7 -17 0 -6 5 -5 12 2 6 6 9 14 7 17 -3 3
-9 2 -12 -2z"/>
<path d="M4113 3703 c-7 -3 -13 -13 -13 -24 0 -23 35 -26 43 -5 7 17 -13 35
-30 29z"/>
<path d="M6572 3659 c2 -6 8 -10 13 -10 5 0 11 4 13 10 2 6 -4 11 -13 11 -9 0
-15 -5 -13 -11z"/>
<path d="M6420 3600 c0 -5 7 -10 15 -10 8 0 15 5 15 10 0 6 -7 10 -15 10 -8 0
-15 -4 -15 -10z"/>
<path d="M9775 3594 c-77 -19 -130 -51 -187 -112 -105 -112 -57 -173 95 -123
88 29 127 31 140 6 6 -11 19 -32 29 -47 21 -31 24 -117 7 -151 -6 -12 -22 -33
-34 -47 -12 -14 -25 -43 -28 -65 -7 -44 -77 -152 -96 -147 -6 1 -14 -5 -18
-14 -3 -9 -14 -26 -25 -38 -10 -11 -50 -58 -89 -104 -39 -45 -86 -94 -106
-110 -20 -15 -43 -36 -52 -47 -42 -52 -137 -136 -174 -153 -23 -11 -52 -34
-64 -50 -14 -19 -33 -32 -50 -34 -17 -2 -29 -10 -31 -20 -5 -26 21 -22 48 6
14 16 36 26 59 28 28 2 39 9 49 30 17 36 106 113 160 139 27 13 53 37 69 62
28 44 64 81 105 107 56 34 138 119 138 142 0 30 88 138 141 173 40 26 41 28
36 70 -5 36 -2 49 26 90 49 74 106 167 117 193 12 28 4 66 -17 84 -8 7 -25 35
-37 63 -13 27 -30 56 -40 64 -24 20 -102 23 -171 5z"/>
<path d="M6470 3574 c0 -9 7 -14 17 -12 25 5 28 28 4 28 -12 0 -21 -6 -21 -16z"/>
<path d="M335 3550 c3 -5 10 -10 16 -10 5 0 9 5 9 10 0 6 -7 10 -16 10 -8 0
-12 -4 -9 -10z"/>
<path d="M10970 3510 c0 -5 5 -10 10 -10 6 0 10 5 10 10 0 6 -4 10 -10 10 -5
0 -10 -4 -10 -10z"/>
<path d="M5883 3463 c-7 -3 -13 -14 -13 -25 0 -14 6 -19 22 -16 13 2 24 10 26
19 3 18 -15 29 -35 22z"/>
<path d="M12695 3440 c-3 -5 -1 -10 4 -10 6 0 11 5 11 10 0 6 -2 10 -4 10 -3
0 -8 -4 -11 -10z"/>
<path d="M3335 3249 c-10 -15 1 -23 20 -15 9 3 13 10 10 16 -8 13 -22 13 -30
-1z"/>
<path d="M5752 3244 c-23 -16 -27 -52 -13 -104 6 -22 11 -24 51 -22 33 2 51
10 68 28 29 32 28 59 -3 89 -28 29 -70 32 -103 9z"/>
<path d="M5370 3160 c0 -5 5 -10 10 -10 6 0 10 5 10 10 0 6 -4 10 -10 10 -5 0
-10 -4 -10 -10z"/>
<path d="M11109 3107 c-78 -40 -132 -110 -150 -196 -15 -70 -37 -114 -84 -168
-49 -57 -207 -189 -308 -257 -45 -30 -131 -93 -191 -139 -64 -50 -161 -113
-235 -152 -73 -39 -170 -102 -231 -149 -176 -139 -258 -185 -460 -261 -69 -26
-152 -62 -185 -79 -33 -18 -81 -36 -108 -39 -26 -4 -65 -16 -87 -27 -21 -11
-49 -20 -60 -20 -25 0 -80 -51 -80 -74 0 -9 -18 -24 -42 -35 -75 -33 -316
-131 -323 -131 -5 0 -41 -16 -81 -35 -40 -19 -87 -35 -106 -35 -34 0 -121 -45
-206 -107 -23 -17 -62 -35 -85 -38 -52 -9 -68 -17 -133 -66 -62 -48 -104 -65
-184 -78 -46 -8 -74 -19 -102 -41 -56 -45 -102 -62 -198 -69 -47 -4 -98 -15
-115 -24 -90 -49 -146 -70 -297 -112 -313 -86 -629 -145 -783 -146 -109 -1
-175 12 -303 62 -119 46 -219 60 -338 48 -69 -7 -122 -7 -174 0 -94 14 -162
11 -168 -8 -4 -11 3 -12 31 -7 21 4 38 2 42 -4 3 -5 20 -10 36 -10 32 0 69
-16 81 -34 4 -6 8 -23 8 -37 0 -39 69 -112 132 -140 48 -21 67 -23 193 -23 81
1 207 10 300 22 88 12 213 26 277 32 139 12 320 50 415 86 127 47 328 113 396
129 37 9 96 15 130 13 72 -2 88 5 162 72 64 58 119 78 174 64 47 -13 72 -4
124 42 50 46 118 78 129 61 6 -9 8 -9 8 0 0 7 16 15 35 18 19 3 50 7 69 10 23
4 50 21 79 50 25 24 58 47 74 51 163 37 189 48 231 102 17 21 50 47 74 57 24
11 62 32 86 48 50 33 214 112 254 122 20 5 27 3 31 -12 4 -14 5 -13 6 5 1 14
10 26 27 32 23 9 31 6 69 -29 83 -76 171 -76 239 -1 30 34 36 47 36 86 0 80 3
83 200 154 58 21 177 66 265 100 88 34 211 75 273 91 147 38 209 70 312 164
55 50 113 91 165 117 149 75 220 121 310 202 84 76 218 180 325 253 25 17 95
52 156 77 176 74 228 132 229 257 0 56 -4 70 -27 101 -43 56 -117 88 -204 88
-62 0 -81 -5 -135 -33z"/>
<path d="M1980 3094 c0 -9 7 -14 17 -12 25 5 28 28 4 28 -12 0 -21 -6 -21 -16z"/>
<path d="M5353 3024 c-7 -18 11 -39 26 -30 17 11 13 46 -4 46 -9 0 -18 -7 -22
-16z"/>
<path d="M10380 2999 c0 -14 5 -19 17 -17 26 5 29 38 4 38 -15 0 -21 -6 -21
-21z"/>
<path d="M9976 2939 c-59 -46 -9 -138 61 -113 56 19 68 99 18 122 -36 17 -48
15 -79 -9z"/>
<path d="M5290 2850 c0 -5 5 -10 10 -10 6 0 10 5 10 10 0 6 -4 10 -10 10 -5 0
-10 -4 -10 -10z"/>
<path d="M5123 2824 c-3 -8 -1 -20 5 -26 16 -16 42 -2 42 22 0 24 -38 28 -47
4z"/>
<path d="M1945 2742 c-96 -65 -145 -105 -145 -118 0 -8 3 -14 6 -14 13 0 92
61 97 75 4 8 15 15 25 15 22 0 62 35 62 55 0 19 2 20 -45 -13z"/>
<path d="M4320 2595 c0 -17 2 -18 24 -9 23 9 20 24 -4 24 -11 0 -20 -7 -20
-15z"/>
<path d="M8456 2601 c-3 -5 1 -14 9 -21 12 -10 15 -10 15 3 0 19 -16 31 -24
18z"/>
<path d="M4667 2543 c-12 -11 -8 -23 8 -23 8 0 15 7 15 15 0 16 -12 20 -23 8z"/>
<path d="M3280 2474 c0 -9 5 -14 12 -12 18 6 21 28 4 28 -9 0 -16 -7 -16 -16z"/>
<path d="M9552 2474 c4 -21 22 -23 26 -1 2 10 -3 17 -13 17 -10 0 -15 -6 -13
-16z"/>
<path d="M4231 2387 c-6 -6 -11 -17 -11 -25 0 -19 44 -11 48 9 4 20 -22 31
-37 16z"/>
<path d="M4830 2390 c0 -5 5 -10 10 -10 6 0 10 5 10 10 0 6 -4 10 -10 10 -5 0
-10 -4 -10 -10z"/>
<path d="M9510 2380 c0 -5 5 -10 10 -10 6 0 10 5 10 10 0 6 -4 10 -10 10 -5 0
-10 -4 -10 -10z"/>
<path d="M9590 2359 c0 -5 5 -7 10 -4 6 3 10 8 10 11 0 2 -4 4 -10 4 -5 0 -10
-5 -10 -11z"/>
<path d="M3122 2348 c-14 -14 -16 -38 -4 -38 12 0 32 23 32 37 0 16 -12 17
-28 1z"/>
<path d="M4431 2311 c-17 -11 -5 -31 19 -31 24 0 36 20 19 31 -8 5 -16 9 -19
9 -3 0 -11 -4 -19 -9z"/>
<path d="M8900 2275 c0 -8 5 -15 10 -15 6 0 10 7 10 15 0 8 -4 15 -10 15 -5 0
-10 -7 -10 -15z"/>
<path d="M3088 2269 c-35 -20 -8 -67 32 -54 22 7 27 34 8 53 -14 14 -18 14
-40 1z"/>
<path d="M4063 2264 c-6 -16 11 -34 33 -34 17 0 37 27 29 40 -10 16 -55 12
-62 -6z"/>
<path d="M8785 2261 c-6 -11 9 -23 19 -14 9 9 7 23 -3 23 -6 0 -12 -4 -16 -9z"/>
<path d="M9457 2264 c-9 -10 2 -24 19 -24 8 0 14 7 14 15 0 15 -21 21 -33 9z"/>
<path d="M2998 2243 c7 -3 16 -2 19 1 4 3 -2 6 -13 5 -11 0 -14 -3 -6 -6z"/>
<path d="M4255 2190 c-3 -5 1 -10 10 -10 9 0 13 5 10 10 -3 6 -8 10 -10 10 -2
0 -7 -4 -10 -10z"/>
<path d="M9253 2040 c-65 -39 -87 -116 -43 -152 29 -23 57 -23 97 2 40 24 62
57 70 105 5 30 2 41 -12 51 -27 20 -75 17 -112 -6z"/>
<path d="M3856 1751 c-3 -4 -22 -11 -42 -14 -43 -7 -64 -23 -64 -49 0 -42 69
-35 89 9 7 16 17 36 22 46 9 17 5 24 -5 8z"/>
<path d="M4787 1713 c-4 -3 -7 -12 -7 -20 0 -17 26 -17 33 1 8 21 -11 35 -26
19z"/>
<path d="M467 1632 c-20 -22 -22 -52 -4 -52 19 0 60 47 52 59 -10 16 -30 13
-48 -7z"/>
<path d="M5013 1612 c-46 -19 -64 -32 -42 -31 20 0 117 47 99 48 -8 0 -34 -8
-57 -17z"/>
<path d="M2333 1561 c-129 -71 -261 -197 -319 -304 -29 -53 -78 -112 -188
-227 -188 -196 -255 -273 -286 -332 l-24 -47 24 -27 c24 -25 28 -26 105 -20
44 3 105 9 136 12 l57 6 24 -48 c29 -59 62 -75 111 -55 62 25 66 25 76 -2 15
-39 41 -47 143 -47 125 1 210 37 178 75 -20 24 -89 38 -180 37 -69 -1 -90 2
-109 17 -14 11 -22 25 -18 34 5 14 114 57 145 57 7 0 29 12 48 26 27 21 41 25
68 20 38 -7 69 14 64 43 -5 27 -48 26 -72 -3 -12 -14 -46 -34 -76 -44 -30 -11
-79 -29 -107 -41 l-53 -21 0 30 c0 24 -5 31 -27 36 -21 6 -30 2 -41 -14 -11
-17 -24 -22 -57 -22 -35 0 -49 -6 -71 -29 -31 -33 -59 -40 -180 -46 -74 -4
-87 -2 -104 15 -32 32 -24 66 29 137 67 89 301 297 369 328 234 107 515 384
472 465 -16 30 -73 26 -137 -9z"/>
<path d="M3545 1539 c-10 -15 3 -25 16 -12 7 7 7 13 1 17 -6 3 -14 1 -17 -5z"/>
<path d="M1694 1465 c-7 -18 3 -35 21 -35 16 0 38 34 28 44 -12 11 -44 6 -49
-9z"/>
<path d="M3430 1435 c-14 -17 -5 -35 19 -35 22 0 45 25 36 40 -9 15 -41 12
-55 -5z"/>
<path d="M1507 1433 c-14 -13 -6 -33 12 -33 19 0 35 23 24 34 -8 8 -28 8 -36
-1z"/>
<path d="M1430 1405 c0 -8 5 -15 10 -15 6 0 10 7 10 15 0 8 -4 15 -10 15 -5 0
-10 -7 -10 -15z"/>
<path d="M1290 1350 c-9 -6 -10 -10 -3 -10 6 0 15 5 18 10 8 12 4 12 -15 0z"/>
<path d="M4057 1246 c-79 -22 -133 -74 -92 -90 10 -4 34 7 62 27 24 17 61 42
81 54 43 26 25 29 -51 9z"/>
<path d="M3031 1176 c-9 -10 -8 -16 3 -25 10 -9 16 -8 25 3 9 10 8 16 -3 25
-10 9 -16 8 -25 -3z"/>
<path d="M769 1042 c-53 -35 -84 -68 -71 -76 23 -14 162 68 162 96 0 17 -48 7
-91 -20z"/>
<path d="M2697 974 c-9 -10 2 -24 19 -24 8 0 14 7 14 15 0 15 -21 21 -33 9z"/>
<path d="M585 920 c-3 -5 -2 -10 4 -10 5 0 13 5 16 10 3 6 2 10 -4 10 -5 0
-13 -4 -16 -10z"/>
<path d="M2455 831 c-6 -11 9 -23 19 -14 9 9 7 23 -3 23 -6 0 -12 -4 -16 -9z"/>
<path d="M2050 789 c0 -5 5 -7 10 -4 6 3 10 8 10 11 0 2 -4 4 -10 4 -5 0 -10
-5 -10 -11z"/>
<path d="M554 745 c-8 -21 3 -34 26 -28 27 7 27 43 0 43 -11 0 -23 -7 -26 -15z"/>
<path d="M770 749 c0 -5 5 -7 10 -4 6 3 10 8 10 11 0 2 -4 4 -10 4 -5 0 -10
-5 -10 -11z"/>
<path d="M5220 725 c-11 -13 -8 -15 13 -15 30 0 44 15 21 24 -21 8 -20 8 -34
-9z"/>
<path d="M168 598 c-26 -7 -56 -30 -102 -80 -36 -38 -66 -71 -66 -72 0 -2 37
10 82 25 45 16 83 29 85 29 2 0 21 16 43 36 33 30 38 39 29 55 -11 21 -17 22
-71 7z"/>
</g>
</svg>
